<?xml version="1.0" standalone="no"?>
<!DOCTYPE svg PUBLIC "-//W3C//DTD SVG 20010904//EN"
    "http://www.w3.org/TR/2001/REC-SVG-20010904/DTD/svg10.dtd">
<svg version="1.0" xmlns="http://www.w3.org/2000/svg"
     width="750.000000pt" height="750.000000pt" viewBox="0 0 750.000000 750.000000"
     preserveAspectRatio="xMidYMid meet">

    <g transform="translate(0.000000,750.000000) scale(0.100000,-0.100000)"
       fill="#eb5241" stroke="none">
        <path d="M3392 7479 c-215 -19 -561 -93 -797 -169 -354 -116 -755 -321 -1050
-539 -245 -181 -528 -451 -708 -676 -348 -435 -589 -928 -726 -1484 -56 -225
-70 -329 -83 -615 -14 -301 1 -697 32 -871 72 -405 221 -832 413 -1180 177
-322 373 -583 641 -850 543 -543 1205 -888 1991 -1039 310 -59 933 -62 1273
-5 503 84 1003 283 1442 574 555 368 980 849 1278 1445 215 429 321 785 374
1250 20 177 17 718 -6 900 -40 333 -103 580 -229 900 -338 862 -1000 1580
-1832 1990 -369 181 -811 316 -1147 350 -98 9 -649 31 -733 29 -22 -1 -82 -5
-133 -10z m748 -180 c166 -13 283 -33 470 -80 1302 -331 2287 -1320 2615
-2628 80 -318 100 -524 92 -941 -6 -306 -14 -388 -63 -622 -266 -1264 -1171
-2277 -2399 -2683 -354 -116 -698 -169 -1110 -168 -578 1 -1072 116 -1576 369
-348 174 -624 371 -903 643 -491 481 -819 1054 -981 1713 -73 295 -97 511 -97
848 0 438 48 735 188 1149 405 1203 1417 2092 2679 2355 126 26 312 53 405 60
87 6 542 -4 680 -15z"/>
        <path d="M3360 7056 c-765 -98 -1459 -444 -1991 -993 -508 -525 -815 -1161
-915 -1898 -22 -163 -26 -606 -6 -765 58 -469 186 -884 384 -1245 601 -1099
1774 -1773 3018 -1732 284 10 485 38 754 106 1056 270 1946 1099 2298 2141
138 410 179 718 163 1240 -8 286 -23 399 -84 640 -77 307 -178 563 -321 817
-437 773 -1147 1337 -1986 1578 -164 47 -355 87 -504 105 -149 18 -685 22
-810 6z m562 -322 c534 -73 1100 -488 1289 -945 61 -150 109 -377 109 -523 0
-242 -97 -572 -247 -841 -274 -492 -634 -815 -1253 -1125 -230 -115 -237 -125
-226 -299 16 -252 117 -975 236 -1690 47 -287 50 -364 16 -436 -44 -93 -112
-135 -218 -135 -81 1 -132 24 -186 85 -51 58 -70 115 -112 333 -121 633 -248
1588 -290 2187 -27 394 -32 576 -37 1475 -8 1390 7 1627 110 1761 38 50 140
109 242 140 124 38 350 43 567 13z"/>
        <path d="M3557 6204 c-3 -6 -12 -104 -19 -219 -15 -240 -19 -1915 -4 -2098 9
-125 19 -142 69 -125 47 16 198 101 312 175 150 98 249 177 364 288 225 217
356 418 441 674 168 505 16 928 -420 1164 -87 47 -218 92 -343 118 -112 23
-390 38 -400 23z"/>
    </g>
</svg>
