<?xml version="1.0" standalone="no"?>
<!DOCTYPE svg PUBLIC "-//W3C//DTD SVG 20010904//EN"
    "http://www.w3.org/TR/2001/REC-SVG-20010904/DTD/svg10.dtd">
<svg version="1.0" xmlns="http://www.w3.org/2000/svg"
     width="750.000000pt" height="750.000000pt" viewBox="0 0 750.000000 750.000000"
>

    <circle cx="375" cy="375" r="375" fill="white"/>

    <g transform="translate(0.000000,750.000000) scale(0.100000,-0.100000)"
       fill="rgb(300,76,56)" opacity="1" stroke="none">
        <path d="M3392 7479 c-215 -19 -561 -93 -797 -169 -354 -116 -755 -321 -1050
-539 -245 -181 -528 -451 -708 -676 -348 -435 -589 -928 -726 -1484 -56 -225
-70 -329 -83 -615 -14 -301 1 -697 32 -871 72 -405 221 -832 413 -1180 177
-322 373 -583 641 -850 543 -543 1205 -888 1991 -1039 310 -59 933 -62 1273
-5 503 84 1003 283 1442 574 555 368 980 849 1278 1445 215 429 321 785 374
1250 20 177 17 718 -6 900 -40 333 -103 580 -229 900 -338 862 -1000 1580
-1832 1990 -369 181 -811 316 -1147 350 -98 9 -649 31 -733 29 -22 -1 -82 -5
-133 -10z m618 -169 c227 -13 314 -24 485 -61 542 -119 1067 -368 1500 -715
142 -113 427 -398 539 -539 402 -505 662 -1098 763 -1745 15 -96 18 -178 18
-500 0 -396 -3 -437 -46 -660 -236 -1215 -1060 -2215 -2199 -2668 -301 -120
-573 -189 -900 -228 -203 -25 -630 -25 -830 0 -609 74 -1166 289 -1654 639
-838 600 -1369 1508 -1488 2542 -19 166 -16 608 6 785 51 432 184 860 385
1246 396 758 1058 1352 1856 1667 300 118 652 207 935 236 121 12 425 12 630
1z"/>
        <path d="M3465 7064 c-16 -2 -73 -9 -125 -15 -307 -35 -648 -132 -960 -274
-977 -443 -1688 -1346 -1890 -2400 -137 -716 -26 -1494 305 -2144 348 -684
944 -1241 1647 -1540 303 -129 633 -215 968 -252 147 -17 542 -17 685 -1 777
89 1423 392 1968 922 286 278 485 546 657 885 167 328 297 750 330 1070 18
169 8 874 -13 985 -109 563 -307 1020 -626 1444 -580 771 -1476 1261 -2406
1316 -159 9 -473 11 -540 4z m497 -334 c150 -25 323 -86 488 -171 183 -94 302
-181 450 -329 228 -227 331 -416 397 -730 27 -126 24 -372 -5 -503 -71 -321
-240 -663 -465 -942 -93 -116 -305 -318 -430 -411 -150 -112 -273 -186 -506
-309 -110 -57 -218 -116 -240 -130 -52 -32 -65 -78 -56 -195 20 -260 116 -962
204 -1495 79 -472 85 -526 65 -596 -32 -114 -119 -182 -234 -183 -53 0 -75 5
-118 29 -120 65 -141 127 -236 690 -159 946 -237 1665 -266 2430 -13 348 -13
1997 0 2225 21 374 65 486 217 564 63 31 173 65 254 76 94 13 351 3 481 -20z"/>
        <path d="M3569 6203 c-18 -4 -21 -46 -39 -483 -20 -501 -6 -1892 20 -1940 16
-30 45 -24 147 30 240 128 427 265 604 440 235 233 372 460 443 733 97 373 23
686 -217 914 -94 90 -145 123 -272 185 -120 57 -282 101 -433 117 -101 11
-221 13 -253 4z"/>
    </g>
</svg>
